<svg id="Capa_1" data-name="Capa 1" xmlns="http://www.w3.org/2000/svg" viewBox="0 0 992.1 277.11"><path d="M321.94,451.75c0-20.38-.17-50.43-.1-81.32l.1-15.61h-57.4v7.27q.07,92.18-.38,184.36a75.51,75.51,0,0,1-.83,12.39c-1.11,6.56-5.61,9.62-12.1,10-7.36.4-12.47-3.36-14.91-12.18-9-32.66-17.72-65.41-26.64-98.1-6.61-24.24-11.55-49-21.17-72.32a56.49,56.49,0,0,0-31-31.6,81,81,0,0,0-40-6.67c-21.89,2.11-41.16,9.45-53.76,28.82C56,388.59,55.17,402,55.12,415.33,54.89,481.13,55,547,54.9,612.78V618H112V599.6h0q-.19-79.1,0-158.19c0-8.74-.54-17.51.78-26.2,1.19-7.91,6.24-11.82,14.27-11.32,7,.44,11.26,4.18,13.67,13,8.61,31.64,17,63.36,25.54,95C172.8,536,177.92,560.44,187,583.76c6.59,17,18.1,29.19,35.55,35.6a83.25,83.25,0,0,0,41,4.61c19.31-2.77,36.5-9.81,48.13-26.6,6.93-10,8.76-21.36,9.33-33C322.64,530.7,321.4,497,321.94,451.75Z" transform="translate(-54.9 -347.65)"/><path d="M789.45,527.52c-4-32.71-25.8-57.1-57.93-63.35-22.19-4.31-44.79-3.3-67.27-3.36-10.13,0-20.3.5-30.37-1.11-13.39-2.14-19.46-9.9-19.28-24.53.15-12.85,6.78-20.33,19.81-21.76,13.84-1.52,27.75-.83,41.64-.82,10.52,0,21.05,0,31.58-.15h0l71.49.22V356.83h-4.27c-47.19.11-94.4-1-141.57.69-15.29.55-30.32,4.12-42.76,13.77-25.3,19.64-34.63,45.89-31.48,77.1,3,29.82,23,55,50.4,62.92,13.68,3.94,27.82,4.34,41.94,4.64,20.06.44,40.12.71,60.18,1.25,5.79.15,11.81,1.11,15.74,5.68,7.35,8.55,8.59,18.55,4.65,28.93-3.53,9.28-11.53,12-20.65,12.51-1.76.11-3.52.23-5.29.22l-56.7-.1v-.05H566.36L558,537.75h0c-1.63-5.12-3.27-10.24-4.88-15.38-14.18-45-28.11-90.16-43.42-134.84-5.95-17.38-18-28.61-35.48-34.28a77.53,77.53,0,0,0-32.65-3.35c-26.28,2.89-45.47,14.69-53.82,41.19-10.32,32.74-21.57,65.18-32.22,97.81-11.35,34.82-22.5,69.71-33.85,104.54l-8.41,25.3h60.47l7.5-24q27.09-84.66,54.5-169.21a140,140,0,0,1,5.65-14.67c1.5-3.29,4.1-5.9,8.13-5.75s6.39,2.79,7.77,6.21c1.81,4.46,3.49,9,5,13.55q23.63,73.51,47.15,147.07L524,620.45h98.66q23.16,0,46.31-.1c15.43-.05,30.88.51,46.29-.78,18.14-1.52,35.54-5.62,49-18.6C785.12,580.88,793,556.09,789.45,527.52Z" transform="translate(-54.9 -347.65)"/><path d="M1047,620.2l-9-24.29c-11.47-36.18-22.74-72.42-34.37-108.54-10.52-32.67-20.13-65.63-31.83-97.92-4-10.94-10-20.45-20.21-26.73-20.49-12.61-42.34-13.61-64.91-6.91-20.62,6.13-31.16,21.35-37.43,40.73-14.86,46-30.09,91.83-45.14,137.74-6,18.19-11.83,36.41-17.81,54.6l-10.8,31.57h61.08l14.19-45.18h0q21.5-66.54,43-133.08,4.56-14,9.79-27.82c1.34-3.52,3.76-6.61,8.24-6.52s7.18,3.06,8.78,6.88c1.52,3.62,2.8,7.36,4,11.1,20.27,63.29,41,126.73,61.08,190.07l1.35,4.3Z" transform="translate(-54.9 -347.65)"/></svg>